# xmcd
#
# Track frame offsets:
#	182
#	12225
#	22670
#	35665
#	48020
#	60227
#	73085
#	83750
#	93325
#	104295
#	115522
#	128255
#	141560
#	151817
#	161660
#	173195
#
# Disc length: 2461
#
# Revision: 1
# Processed by: cddbd v1.5.1PL0 Copyright (c) Steve Scherf et al.
# Submitted via: ExactAudioCopy v0.90b4
# Normalized: r0:DSETVAR1
#
DISCID=b9099b10
DTITLE=Various Artist - Country Time CD1
DYEAR=1994
DGENRE=
TTITLE0=Jim Reeves - Mexican Joe
TTITLE1=Webb Pierce - In The Jailhouse Now
TTITLE2=Faron Young - Love Me Tender
TTITLE3=Lynn Anderson - Stand By Your Man
TTITLE4=Johnny Cash - I Walk The Line
TTITLE5=Bobby Helms - Fraulein
TTITLE6=Merle Haggard - Slowly But Surely
TTITLE7=Anne Murray - Some Birds
TTITLE8=Ferlin Husky - A Fallen Star
TTITLE9=Bobby Bare - Please Don't Tell Me How The Story Ends
TTITLE10=Willie Nelson - Any Old Arms Won't Do
TTITLE11=Kenny Rogers - Ruby, Don't Take Your Love To Town
TTITLE12=Dolly Parton - Release Me
TTITLE13=Merle Travis - So Round, So Firm, So Fully Packed
TTITLE14=Freddy Fender - Before The Next Teardrop Falls
TTITLE15=Patsy Cline - The Heart You Break May Be Your Own
EXTD=
EXTT0=
EXTT1=
EXTT2=
EXTT3=
EXTT4=
EXTT5=
EXTT6=
EXTT7=
EXTT8=
EXTT9=
EXTT10=
EXTT11=
EXTT12=
EXTT13=
EXTT14=
EXTT15=
PLAYORDER=
